<?xml version="1.0" standalone="no"?>
<!DOCTYPE svg PUBLIC "-//W3C//DTD SVG 20010904//EN"
 "http://www.w3.org/TR/2001/REC-SVG-20010904/DTD/svg10.dtd">
<svg version="1.0" xmlns="http://www.w3.org/2000/svg"
 width="260.000000pt" height="260.000000pt" viewBox="0 0 260.000000 260.000000"
 preserveAspectRatio="xMidYMid meet">
<metadata>
Created by potrace 1.11, written by Peter Selinger 2001-2013
</metadata>
<g transform="translate(0.000000,260.000000) scale(0.100000,-0.100000)"
fill="#000000" stroke="none">
<path d="M757 2279 c-37 -21 -167 -161 -167 -179 0 -6 -4 -10 -9 -10 -7 0 -85
-108 -86 -120 0 -3 -4 -11 -8 -17 -5 -7 -5 -13 0 -13 4 0 3 -4 -3 -8 -16 -10
-88 -152 -92 -182 -2 -13 -7 -27 -11 -30 -11 -7 -31 -102 -31 -145 0 -50 9
-65 39 -65 24 0 68 19 46 20 -5 0 -2 5 8 11 9 5 17 16 17 23 0 22 183 199 243
234 15 9 27 20 27 24 0 3 16 12 35 19 19 7 35 19 35 26 0 7 3 12 8 12 7 -1 11
0 30 6 4 2 17 6 30 10 12 4 22 11 22 15 0 5 17 14 37 21 20 6 50 20 67 29 17
10 49 23 71 30 22 7 45 16 50 20 6 5 39 16 75 25 36 9 69 21 74 26 22 20 26 7
7 -20 -12 -16 -21 -34 -21 -40 0 -6 -5 -11 -10 -11 -6 0 -18 -16 -27 -35 -9
-19 -20 -35 -25 -35 -4 0 -8 -7 -8 -15 0 -8 -4 -15 -10 -15 -5 0 -10 -6 -10
-13 0 -8 -9 -22 -20 -32 -11 -10 -20 -22 -20 -27 0 -5 -6 -15 -12 -22 -19 -20
-43 -56 -43 -64 0 -4 -8 -18 -18 -32 -28 -40 -61 -93 -77 -125 -8 -16 -44 -59
-80 -95 -36 -36 -73 -76 -82 -90 -14 -22 -18 -83 -8 -115 5 -17 -41 -125 -54
-125 -4 0 -6 -7 -2 -15 3 -8 0 -15 -6 -15 -6 0 -8 -3 -5 -7 4 -3 0 -17 -8 -30
-9 -13 -12 -23 -9 -23 4 0 0 -8 -9 -17 -8 -10 -16 -22 -18 -28 -4 -24 -7 -32
-18 -65 -56 -159 -82 -246 -96 -313 -18 -86 -18 -232 -1 -259 18 -29 53 -21
91 19 32 34 39 46 36 65 0 4 8 10 19 13 11 4 18 10 15 15 -3 5 2 16 11 24 8 9
12 16 8 16 -4 0 3 9 15 19 12 11 22 21 21 23 -3 8 15 43 32 60 10 10 18 24 18
32 0 8 7 16 15 20 8 3 15 12 15 21 0 8 4 15 9 15 5 0 12 11 15 25 4 14 10 23
15 21 5 -3 14 8 21 25 7 16 21 34 32 40 10 5 16 14 13 18 -2 5 2 14 10 21 8 7
12 16 10 21 -3 5 3 14 15 21 11 7 20 18 20 25 0 6 9 18 20 26 16 11 18 16 7
31 -12 16 -15 14 -45 -18 -18 -20 -32 -39 -32 -44 0 -4 -13 -21 -30 -37 -16
-16 -30 -32 -30 -36 0 -4 -22 -29 -48 -56 -26 -27 -61 -66 -76 -86 -34 -44
-59 -36 -30 8 10 16 20 37 21 48 2 10 17 47 33 80 17 34 30 67 30 74 0 7 4 13
8 13 5 0 16 24 25 54 10 30 24 59 32 66 8 7 15 18 15 26 0 30 23 23 66 -20 25
-25 49 -46 53 -46 4 0 17 -8 29 -17 53 -45 62 -52 62 -48 0 5 29 -17 59 -45 9
-8 28 -21 42 -28 14 -8 41 -27 60 -43 19 -16 38 -29 42 -29 4 0 17 -9 29 -20
12 -11 30 -20 40 -20 10 0 21 -7 24 -15 4 -8 10 -15 16 -15 5 0 16 -7 25 -16
9 -8 22 -13 29 -10 8 3 14 1 14 -4 0 -12 108 -63 170 -81 25 -7 48 -17 51 -21
9 -14 168 -25 231 -16 32 4 66 13 74 20 53 44 90 86 89 103 0 18 -7 20 -85 22
-127 3 -213 15 -234 32 -8 6 -18 11 -22 10 -15 -4 -94 24 -94 33 0 4 -3 7 -7
6 -9 -2 -106 42 -113 51 -3 4 -36 25 -75 46 -38 21 -74 42 -80 47 -23 19 -85
57 -85 52 0 -3 -7 1 -15 8 -25 23 -38 32 -110 78 -38 24 -72 47 -75 50 -12 13
-107 77 -123 83 -16 6 -16 9 3 42 11 20 20 42 20 49 0 8 6 16 14 19 7 3 16 19
19 35 6 32 22 44 142 107 39 20 76 41 83 47 6 6 12 7 12 4 0 -4 14 2 30 14 17
12 30 18 30 14 0 -4 8 0 18 9 10 10 22 14 25 10 4 -3 7 -2 7 4 0 5 6 10 13 10
6 0 55 21 107 46 52 24 106 48 120 52 14 4 39 15 55 25 17 9 46 23 65 30 19 8
37 16 40 19 3 3 45 26 93 50 49 24 91 49 94 57 2 7 11 10 19 7 8 -3 14 0 14 7
0 6 4 9 8 6 5 -3 20 2 33 12 30 21 63 27 35 7 -10 -8 -22 -16 -26 -17 -5 -2
-10 -14 -12 -28 -5 -43 30 -24 104 53 42 45 68 80 68 95 0 27 -13 28 -87 3
-77 -26 -150 -48 -258 -77 -101 -28 -104 -29 -125 -37 -8 -3 -28 -9 -45 -13
-37 -9 -34 -8 -70 -23 -16 -7 -38 -14 -47 -16 -9 -2 -26 -9 -37 -15 -12 -6
-21 -8 -21 -5 0 3 -11 -2 -25 -11 -14 -9 -25 -13 -25 -9 0 4 -11 0 -25 -9 -14
-9 -25 -14 -25 -12 0 5 -99 -41 -152 -70 -17 -9 -29 -11 -33 -4 -3 5 -1 10 6
10 7 0 10 3 7 6 -3 3 5 17 18 31 13 14 21 29 18 34 -3 5 0 9 5 9 6 0 11 7 11
15 0 8 4 15 9 15 5 0 14 14 21 30 7 17 16 30 20 30 4 0 13 14 20 31 7 17 19
36 25 43 27 26 77 144 81 188 3 41 1 49 -18 59 -29 15 -221 4 -279 -16 -23 -8
-44 -13 -47 -10 -3 3 -10 1 -17 -5 -6 -5 -28 -11 -49 -14 -20 -3 -43 -9 -49
-14 -7 -5 -28 -13 -47 -17 -19 -4 -41 -12 -49 -19 -8 -6 -17 -11 -20 -10 -15
2 -41 -9 -41 -18 0 -5 -4 -7 -8 -4 -5 3 -20 -1 -35 -9 -15 -8 -27 -11 -27 -7
0 4 -5 -1 -11 -10 -5 -10 -19 -18 -29 -18 -11 0 -20 -3 -20 -8 0 -4 -21 -19
-47 -32 -25 -14 -60 -37 -77 -53 -17 -15 -39 -30 -48 -33 -10 -3 -18 -9 -18
-14 0 -5 -9 -14 -19 -20 -18 -9 -19 -7 -11 18 4 15 15 41 24 57 9 17 16 35 16
41 0 5 8 19 18 30 9 10 23 32 30 49 8 16 22 35 33 43 10 7 19 18 19 23 0 13
78 89 91 89 6 0 8 4 4 9 -3 5 4 12 15 16 11 3 20 11 20 16 0 12 -41 11 -63 -2z"/>
</g>
</svg>
